<?xml version="1.0" encoding="UTF-8"?>
<svg width="100px" height="90px" viewBox="0 0 100 90" version="1.1" xmlns="http://www.w3.org/2000/svg" xmlns:xlink="http://www.w3.org/1999/xlink">
    <!-- Generator: Sketch 43.2 (39069) - http://www.bohemiancoding.com/sketch -->
    <title>Shape</title>
    <desc>Created with Sketch.</desc>
    <defs>
        <linearGradient x1="50%" y1="0%" x2="50%" y2="100%" id="linearGradient-1">
            <stop stop-color="#FFFFFF" offset="0%"></stop>
            <stop stop-color="#FFFFFF" offset="100%"></stop>
        </linearGradient>
    </defs>
    <g id="Page-1" stroke="none" stroke-width="1" fill="none" fill-rule="evenodd">
        <g id="Artboard" transform="translate(-50.000000, -860.000000)" fill-rule="nonzero" fill="url(#linearGradient-1)">
            <path d="M96.1216405,949.356328 C96.8822762,949.060525 97.896457,948.342147 98.3612899,947.792799 C98.8683804,947.243451 108.714386,930.636239 120.292952,910.859712 C131.871517,891.125442 143.281052,871.60246 145.689731,867.545736 L150,860.150667 L137.787572,860.023895 C123.631297,859.897122 121.476163,860.192925 115.85591,862.939665 C113.024655,864.334163 111.545641,865.432859 108.883417,868.137342 C105.671844,871.391172 104.784436,872.785671 91.515569,895.435711 C83.7824397,908.577805 77.2747791,920.071855 77.0212338,921.00152 C76.3873708,923.283427 76.4296283,925.776622 77.1480064,928.100787 C77.7818695,930.213663 86.951755,946.187012 88.4730263,947.792799 C90.3323579,949.82116 93.5439307,950.455024 96.1216405,949.356328 Z M74.8660995,895.477968 C79.5989436,893.703152 83.6556671,889.519655 85.5149987,884.660039 C86.8672399,881.152663 86.8672399,875.152093 85.5149987,871.77149 C83.6556671,867.123161 79.5144285,862.981922 74.8660995,861.122591 C71.5700116,859.812607 65.0623509,859.812607 61.766263,861.122591 C55.2163448,863.742558 50.6525308,869.869901 50.0609253,876.842394 C49.3425472,885.505189 55.0473147,893.703152 63.4565645,896.069574 C66.5413647,896.914724 71.7812993,896.661179 74.8660995,895.477968 Z" id="Shape" transform="translate(100.000000, 904.945094) scale(-1, 1) rotate(-180.000000) translate(-100.000000, -904.945094) "></path>
        </g>
    </g>
</svg>